<svg width="28" height="28" viewBox="0 0 28 28" fill="none" xmlns="http://www.w3.org/2000/svg">
<g id="Icon/bag">
<path id="Union" fill-rule="evenodd" clip-rule="evenodd" d="M11.3075 6.99991C11.3075 6.82769 11.3947 6.46191 11.7486 6.13423C12.0904 5.81775 12.7518 5.47427 13.9998 5.47427C15.2478 5.47427 15.9093 5.81775 16.2511 6.13423C16.605 6.46191 16.6921 6.82769 16.6921 6.99991H18.3075C18.3075 6.39436 18.0447 5.59347 17.3486 4.94893C16.6404 4.29318 15.5518 3.85889 13.9998 3.85889C12.4478 3.85889 11.3593 4.29318 10.6511 4.94893C9.95497 5.59347 9.69214 6.39436 9.69214 6.99991H11.3075ZM11.3075 6.99993V8.82013H16.6921V6.99993H18.3075V8.82013H21.0819C21.5279 8.82013 21.8896 9.18175 21.8896 9.62783V20.6609C21.8896 21.2953 21.6355 21.9023 21.1853 22.3489C20.7353 22.7952 20.1264 23.0448 19.4929 23.0448H8.37006C7.73652 23.0448 7.12763 22.7952 6.67767 22.3489C6.2275 21.9023 5.97339 21.2953 5.97339 20.6609V9.62783C5.97339 9.18175 6.335 8.82013 6.78108 8.82013H9.69214V6.99993H11.3075ZM9.69214 12.8333V10.4355H7.58877V20.6609C7.58877 20.8626 7.66948 21.0574 7.81529 21.202C7.96131 21.3469 8.16075 21.4294 8.37006 21.4294H19.4929C19.7022 21.4294 19.9016 21.3469 20.0477 21.202C20.1935 21.0574 20.2742 20.8626 20.2742 20.6609V10.4355H18.3075V12.8333H16.6921V10.4355H11.3075V12.8333H9.69214Z" fill="#121212"/>
</g>
</svg>
